<svg width="60" height="65" viewBox="0 0 60 65" fill="none" xmlns="http://www.w3.org/2000/svg">
<g clip-path="url(#clip0_62_2749)">
<path d="M55.7905 52.2944C55.3382 55.6563 53.0758 58.5654 49.9084 59.8582C48.3569 60.5039 46.6764 60.6984 44.9955 60.5039C43.3797 60.3103 41.7634 59.793 40.083 58.8244C37.7556 57.5302 35.4285 55.5272 32.7137 52.5534C36.9803 47.3175 39.5652 42.5339 40.5353 38.2683C40.9879 36.2641 41.0523 34.4541 40.8587 32.7731C40.6005 31.1573 40.0185 29.67 39.1131 28.3774C37.1092 25.4688 33.7483 23.7879 29.999 23.7879C26.2497 23.7879 22.8885 25.5335 20.8846 28.3774C19.9792 29.6702 19.3982 31.1573 19.1392 32.7731C18.8809 34.4541 18.9454 36.3286 19.4626 38.2685C20.432 42.5337 23.0821 47.3822 27.2842 52.6172C24.6339 55.5916 22.2421 57.5953 19.9148 58.8884C18.2343 59.8582 16.618 60.3755 15.0023 60.5686C13.3365 60.7546 11.6506 60.533 10.0895 59.9229C6.92194 58.6301 4.65999 55.7201 4.20718 52.3589C4.01359 50.7434 4.14273 49.1276 4.78913 47.3175C4.98273 46.6706 5.3064 46.0254 5.62913 45.2491C6.08194 44.2153 6.59921 43.1156 7.11577 42.0164L7.18093 41.888C11.6406 32.2559 16.4244 22.4306 21.4019 12.8641L21.5957 12.4755C22.113 11.5069 22.6295 10.473 23.1473 9.50297C23.6641 8.46844 24.2458 7.49859 24.9566 6.65766C26.3141 5.10609 28.1242 4.26586 30.1281 4.26586C32.132 4.26586 33.9419 5.10609 35.2994 6.65789C36.0105 7.49859 36.5922 8.46844 37.1094 9.5032C37.6267 10.473 38.1433 11.5069 38.6605 12.4755L38.8551 12.8641C43.7673 22.4951 48.5512 32.3203 53.0113 41.9524V42.0164C53.5286 43.0509 53.9807 44.2153 54.498 45.2491C54.8214 46.0254 55.1444 46.6704 55.338 47.3175C55.8552 48.998 56.049 50.6147 55.7908 52.2944H55.7905ZM29.999 49.256C26.5087 44.861 24.2458 40.7236 23.4702 37.234C23.1475 35.7469 23.0821 34.4541 23.2766 33.2904C23.4055 32.2559 23.7939 31.3505 24.3102 30.5742C25.5386 28.8305 27.6069 27.7296 29.999 27.7296C32.3908 27.7296 34.5238 28.7648 35.6873 30.5742C36.2041 31.3505 36.5922 32.2559 36.7213 33.2904C36.9151 34.4541 36.8505 35.8113 36.5275 37.234C35.7519 40.6596 33.4893 44.7966 29.999 49.256ZM59.1519 45.8951C58.829 45.1193 58.5055 44.2793 58.1826 43.5682C57.6653 42.4052 57.148 41.3055 56.6955 40.271L56.6308 40.207C52.1711 30.5102 47.3873 20.685 42.3451 10.9903L42.1516 10.6012C41.6343 9.63164 41.117 8.59711 40.6005 7.56305C39.9536 6.39891 39.3069 5.17195 38.2731 4.00758C36.2038 1.42195 33.231 0 30.0632 0C26.8312 0 23.9226 1.42195 21.7891 3.87891C20.8199 5.04211 20.1088 6.27023 19.4624 7.43461C18.9451 8.46844 18.4279 9.50297 17.9109 10.473L17.717 10.8598C12.7401 20.5559 7.89179 30.3818 3.4314 40.0779L3.36694 40.207C2.91413 41.2409 2.39687 42.3394 1.8796 43.5037C1.53379 44.2699 1.2106 45.046 0.91046 45.8311C0.0697573 48.2222 -0.188524 50.4851 0.134445 52.8117C0.846007 57.66 4.07804 61.733 8.53819 63.5423C10.2184 64.2539 11.9638 64.5769 13.7741 64.5769C14.2912 64.5769 14.9376 64.5122 15.4548 64.447C17.5876 64.188 19.7854 63.4784 21.9182 62.2495C24.569 60.7629 27.0901 58.6301 29.9341 55.5272C32.778 58.6301 35.3638 60.7631 37.9494 62.2495C40.083 63.4784 42.2805 64.188 44.4135 64.447C44.9308 64.5122 45.5772 64.5769 46.0942 64.5769C47.9043 64.5769 49.7139 64.2539 51.3301 63.5423C55.855 61.733 59.0223 57.5955 59.7334 52.8117C60.2507 50.5488 59.9917 48.2876 59.1517 45.8948L59.1519 45.8951Z" fill="#E0565B"/>
</g>
<defs>
<clipPath id="clip0_62_2749">
<rect width="60" height="64.6875" fill="white"/>
</clipPath>
</defs>
</svg>
