<svg width="60" height="71" viewBox="0 0 60 71" fill="none" xmlns="http://www.w3.org/2000/svg">
<g clip-path="url(#clip0_62_2739)">
<path d="M18.3724 0.201267C18.029 0.203479 17.6915 0.291197 17.3904 0.456501C16.4018 1.00447 16.0392 2.27455 16.587 3.26244L18.8189 7.29275C13.4414 10.6197 9.8782 16.3028 9.8782 22.7892V23.9943C8.84531 22.806 7.32727 22.0558 5.63109 22.0558C2.52328 22.0558 0 24.5791 0 27.6867V45.0325C0 48.1399 2.52352 50.6634 5.63109 50.6634C7.32727 50.6634 8.84531 49.9129 9.87797 48.7246V51.1544C9.87797 54.4303 12.5585 57.1106 15.8344 57.1106H17.3456V64.8269C17.3456 67.9347 19.8691 70.458 22.9767 70.458C26.0843 70.458 28.6076 67.9345 28.6076 64.8269V57.1106H31.2223V64.8269C31.2223 67.9347 33.7458 70.458 36.8534 70.458C39.9609 70.458 42.4842 67.9345 42.4842 64.8269V57.1106H43.9957C47.2713 57.1106 49.9519 54.4303 49.9519 51.1544V48.7246C50.9845 49.9129 52.5028 50.6634 54.199 50.6634C57.3066 50.6634 59.8298 48.1399 59.8298 45.0325V27.6867C59.8298 24.5791 57.3066 22.0558 54.199 22.0558C52.5028 22.0558 50.9845 22.806 49.9519 23.9943V22.9931V22.9356C49.9523 22.8747 49.9519 22.826 49.9519 22.7892C49.9519 16.304 46.3805 10.6265 41.0048 7.29931L43.2431 3.26244C43.7906 2.27455 43.4283 1.00447 42.4397 0.456501C42.1386 0.291197 41.8011 0.203479 41.4577 0.201267C40.7276 0.194235 40.0111 0.579079 39.6338 1.25994L37.2933 5.48806C35.0048 4.64361 32.5148 4.18072 29.9152 4.18072C27.3178 4.18072 24.8231 4.63869 22.5366 5.4815L20.1963 1.25994C19.8188 0.579079 19.1025 0.194704 18.3724 0.201267Z" fill="white"/>
<path d="M5.63118 23.5225C3.31228 23.5225 1.46704 25.3677 1.46704 27.6866V45.0325C1.46704 47.3514 3.31228 49.1966 5.63118 49.1966C7.95009 49.1966 9.79556 47.3514 9.79556 45.0325V27.6866C9.79556 25.3677 7.95009 23.5225 5.63118 23.5225ZM54.1993 23.5225C51.8802 23.5225 50.0349 25.3677 50.0349 27.6866V45.0325C50.0349 47.3514 51.8802 49.1966 54.1993 49.1966C56.5182 49.1966 58.3634 47.3514 58.3634 45.0325V27.6866C58.3634 25.3677 56.5182 23.5225 54.1993 23.5225Z" fill="#A4C639"/>
<path d="M22.977 43.3169C20.6581 43.3169 18.8126 45.1621 18.8126 47.4813V64.8269C18.8126 67.1458 20.6581 68.991 22.977 68.991C25.2959 68.991 27.1411 67.1458 27.1411 64.8269V47.4813C27.1411 45.1621 25.2959 43.3169 22.977 43.3169ZM36.8536 43.3169C34.5345 43.3169 32.6893 45.1621 32.6893 47.4813V64.8269C32.6893 67.1458 34.5345 68.991 36.8536 68.991C39.1725 68.991 41.0178 67.1458 41.0178 64.8269V47.4813C41.0178 45.1621 39.1725 43.3169 36.8536 43.3169Z" fill="#A4C639"/>
<path d="M18.385 1.66805C18.2865 1.66924 18.19 1.69554 18.1045 1.74446C17.8075 1.90899 17.71 2.25024 17.8748 2.54789L20.8085 7.84735C15.1647 10.7841 11.3524 16.3648 11.3449 22.7698H48.4851C48.4774 16.3648 44.6653 10.7838 39.0215 7.84735L41.9549 2.54813C42.1199 2.25047 42.0222 1.90899 41.7253 1.74446C41.6398 1.69551 41.5432 1.66921 41.4447 1.66805C41.2338 1.66571 41.0343 1.77118 40.9218 1.97414L37.9499 7.33078C35.519 6.25266 32.7923 5.64727 29.9149 5.64727C27.0374 5.64727 24.311 6.25243 21.8798 7.33078L18.9079 1.97414C18.8572 1.88012 18.7817 1.80183 18.6895 1.74785C18.5973 1.69386 18.4921 1.66626 18.3853 1.66805H18.385ZM11.3449 24.2365V51.1544C11.3436 51.7444 11.4589 52.3287 11.684 52.8739C11.9092 53.4192 12.2398 53.9146 12.657 54.3317C13.0741 54.7488 13.5695 55.0794 14.1148 55.3046C14.66 55.5297 15.2444 55.645 15.8343 55.6437H43.9956C44.5856 55.645 45.1699 55.5297 45.7152 55.3046C46.2605 55.0794 46.7559 54.7488 47.1731 54.3316C47.5902 53.9145 47.9208 53.4191 48.146 52.8738C48.3712 52.3285 48.4864 51.7441 48.4851 51.1542V24.2367H11.3449V24.2365Z" fill="#A4C639"/>
<path d="M21.344 12.8726C20.4963 12.8726 19.7943 13.5743 19.7943 14.422C19.7943 15.27 20.4963 15.9717 21.344 15.9717C22.192 15.9717 22.8937 15.27 22.8937 14.422C22.8937 13.5743 22.192 12.8726 21.344 12.8726ZM38.4857 12.8726C37.6377 12.8726 36.936 13.5743 36.936 14.422C36.936 15.27 37.6377 15.9717 38.4857 15.9717C39.3334 15.9717 40.0354 15.27 40.0354 14.422C40.0354 13.5743 39.3334 12.8726 38.4857 12.8726Z" fill="white"/>
</g>
<defs>
<clipPath id="clip0_62_2739">
<rect width="60" height="70.5469" fill="white"/>
</clipPath>
</defs>
</svg>
