<svg width="60" height="61" viewBox="0 0 60 61" fill="none" xmlns="http://www.w3.org/2000/svg">
<g clip-path="url(#clip0_62_2729)">
<path opacity="0.5" d="M29.928 8.64071V25.886L44.8921 17.2456V0L29.928 8.64071Z" fill="#13A049"/>
<path opacity="0.5" d="M29.928 8.64071L14.9641 0V17.2814L29.928 25.9221V8.64071Z" fill="#A2CC39"/>
<path opacity="0.9" d="M44.8922 0L29.928 8.64071L14.9641 0L0 8.64071L29.928 25.9221L59.8383 8.64071L44.8922 0Z" fill="url(#paint0_linear_62_2729)"/>
<path d="M29.928 25.922L0 8.64062V25.922L14.9641 34.5627V51.8263L29.928 60.467L44.8922 51.8263V34.5627L59.8383 25.922V8.64062L29.928 25.922Z" fill="url(#paint1_linear_62_2729)"/>
<path d="M29.928 25.922V60.467L44.8921 51.8263V34.5627L59.8382 25.922V8.64062L29.928 25.922Z" fill="url(#paint2_linear_62_2729)"/>
<path opacity="0.05" d="M29.928 43.1855V60.4669L44.8921 51.8262L29.928 43.1855Z" fill="#231F20"/>
<path opacity="0.1" d="M29.928 60.5031V43.2217L14.9641 51.8624L29.928 60.5031Z" fill="#231F20"/>
<path opacity="0.05" d="M14.9641 17.2812L0 25.922L14.9641 34.5627L29.928 25.922L14.9641 17.2812Z" fill="#231F20"/>
<path opacity="0.05" d="M44.8921 17.2812L29.928 25.922L44.8921 34.5627L59.8382 25.922L44.8921 17.2812Z" fill="#231F20"/>
</g>
<defs>
<linearGradient id="paint0_linear_62_2729" x1="59.8455" y1="12.9587" x2="0" y2="12.9587" gradientUnits="userSpaceOnUse">
<stop stop-color="#37BDA6"/>
<stop offset="1" stop-color="#8AD3B8"/>
</linearGradient>
<linearGradient id="paint1_linear_62_2729" x1="59.8455" y1="34.5528" x2="0" y2="34.5528" gradientUnits="userSpaceOnUse">
<stop offset="0.5" stop-color="#4BB6AD"/>
<stop offset="1" stop-color="#78BBC1"/>
</linearGradient>
<linearGradient id="paint2_linear_62_2729" x1="29.9226" y1="34.5528" x2="59.8451" y2="34.5528" gradientUnits="userSpaceOnUse">
<stop stop-color="#4379A7"/>
<stop offset="1" stop-color="#7CC9B8"/>
</linearGradient>
<clipPath id="clip0_62_2729">
<rect width="60" height="60.7031" fill="white"/>
</clipPath>
</defs>
</svg>
