<svg width="60" height="60" viewBox="0 0 60 60" fill="none" xmlns="http://www.w3.org/2000/svg">
<g clip-path="url(#clip0_62_2726)">
<path d="M13.14 0H46.86C54.1172 0 60 5.88281 60 13.14V46.86C60 54.1172 54.1172 60 46.86 60H13.14C5.88281 60 0 54.1172 0 46.86V13.14C0 5.88281 5.88281 0 13.14 0Z" fill="url(#paint0_linear_62_2726)"/>
<path d="M19.2286 43.549L19.2342 43.5509L17.1827 47.104C16.4339 48.401 14.7755 48.8454 13.4784 48.0966C12.1816 47.3477 11.737 45.6893 12.4859 44.3923L13.9971 41.7748L14.1422 41.5235C14.4012 41.1513 15.0403 40.5087 16.3188 40.6296C16.3188 40.6296 19.3275 40.9561 19.5452 42.5198C19.5452 42.5198 19.5748 43.0343 19.2286 43.549ZM48.3246 34.474H41.9276C41.4919 34.4447 41.3018 34.2891 41.2268 34.1986L41.2221 34.1904L34.3744 22.3296L34.3655 22.3355L33.9549 21.7467C33.2817 20.7173 32.213 23.3498 32.213 23.3498C30.9368 26.2833 32.3942 29.6182 32.902 30.6262L42.4135 47.1005C43.162 48.3973 44.8205 48.8419 46.1177 48.0928C47.4145 47.344 47.8592 45.6855 47.1101 44.3885L44.7319 40.2691C44.6857 40.1693 44.6056 39.8984 45.0933 39.8972H48.3246C49.8223 39.8972 51.0363 38.6831 51.0363 37.1855C51.0363 35.6878 49.8223 34.4737 48.3246 34.4737V34.474ZM35.8995 38.1602C35.8995 38.1602 36.2409 39.8972 34.9198 39.8972H11.2716C9.77391 39.8972 8.55984 38.6831 8.55984 37.1855C8.55984 35.6878 9.77391 34.4737 11.2716 34.4737H17.3513C18.3328 34.417 18.5653 33.8503 18.5653 33.8503L18.5709 33.8531L26.5069 20.1075L26.5045 20.107C26.6491 19.8415 26.5287 19.5905 26.5078 19.5509L23.8868 15.0112C23.138 13.7144 23.5824 12.0558 24.8794 11.3072C26.1764 10.5584 27.8349 11.0025 28.5837 12.2995L29.7992 14.4049L31.0125 12.3033C31.7613 11.0065 33.4198 10.5619 34.7168 11.3109C36.0138 12.0598 36.4582 13.718 35.7094 15.015L24.6661 34.1423C24.6178 34.2588 24.6031 34.4416 24.9623 34.4737H31.5633L31.5647 34.5382C31.5647 34.5382 35.3799 34.5975 35.8995 38.1602Z" fill="white"/>
</g>
<defs>
<linearGradient id="paint0_linear_62_2726" x1="30" y1="0" x2="30" y2="60" gradientUnits="userSpaceOnUse">
<stop stop-color="#17C9FB"/>
<stop offset="1" stop-color="#1A74E8"/>
</linearGradient>
<clipPath id="clip0_62_2726">
<rect width="60" height="60" fill="white"/>
</clipPath>
</defs>
</svg>
