<svg width="80" height="66" viewBox="0 0 80 66" fill="none" xmlns="http://www.w3.org/2000/svg">
<g filter="url(#filter0_d_62_2745)">
<g clip-path="url(#clip0_62_2745)">
<path d="M39.9166 0C20.5814 0 5.43324 24.6 4 45.3775C10.0676 55.9079 24.6994 59.8662 39.9172 59.8662C55.1338 59.8662 69.7665 55.9079 75.831 45.3772C74.3975 24.6 59.2513 0 39.9169 0" fill="#B6DEFF"/>
<path d="M70.7784 40.4282C70.7784 40.4282 66.508 31.1956 62.1674 25.8091C57.8238 20.4203 52.5193 14.5527 49.3829 14.5527C46.2483 14.5527 37.4855 30.0677 33.4655 30.0677C29.4446 30.0677 27.3551 23.0344 22.4117 23.0344C17.4663 23.0344 9.60942 39.9947 9.60942 39.9947L9.07703 42.8699C9.07703 42.8699 11.8066 54.9716 40.3627 54.9716C68.9198 54.9716 71.2021 43.0685 71.2021 43.0685L70.7787 40.4279" fill="#66CC66"/>
<path d="M33.913 36.6886C29.4781 36.6886 27.2046 32.3128 25.9719 29.6117C24.8635 27.1784 24.6716 23.3368 21.5266 23.2291C21.8356 23.1066 22.133 23.0342 22.4119 23.0342C27.3553 23.0342 29.4449 30.0675 33.4657 30.0675C37.4857 30.0675 46.2485 14.5522 49.3832 14.5522C49.9739 14.5522 50.6392 14.7607 51.3612 15.1314C50.8271 15.061 50.1423 15.11 49.6147 15.6393C48.6015 16.6528 39.4034 36.6886 33.913 36.6886Z" fill="#17AD49"/>
</g>
</g>
<defs>
<filter id="filter0_d_62_2745" x="-0.224304" y="0" width="80.1127" height="68" filterUnits="userSpaceOnUse" color-interpolation-filters="sRGB">
<feFlood flood-opacity="0" result="BackgroundImageFix"/>
<feColorMatrix in="SourceAlpha" type="matrix" values="0 0 0 0 0 0 0 0 0 0 0 0 0 0 0 0 0 0 127 0" result="hardAlpha"/>
<feOffset dy="4"/>
<feGaussianBlur stdDeviation="2"/>
<feColorMatrix type="matrix" values="0 0 0 0 0 0 0 0 0 0 0 0 0 0 0 0 0 0 0.25 0"/>
<feBlend mode="normal" in2="BackgroundImageFix" result="effect1_dropShadow_62_2745"/>
<feBlend mode="normal" in="SourceGraphic" in2="effect1_dropShadow_62_2745" result="shape"/>
</filter>
<clipPath id="clip0_62_2745">
<rect width="72.1127" height="60" fill="white" transform="translate(3.7757)"/>
</clipPath>
</defs>
</svg>
