<svg width="41" height="41" viewBox="0 0 41 41" fill="none" xmlns="http://www.w3.org/2000/svg">
<path d="M35.2249 4.48291H5.76582C5.05736 4.48291 4.48499 5.05528 4.48499 5.76374V35.2229C4.48499 35.9313 5.05736 36.5037 5.76582 36.5037H35.2249C35.9334 36.5037 36.5058 35.9313 36.5058 35.2229V5.76374C36.5058 5.05528 35.9334 4.48291 35.2249 4.48291ZM13.9831 31.7686H9.23207V16.4867H13.9831V31.7686ZM11.6096 14.3973C11.065 14.3973 10.5325 14.2358 10.0797 13.9332C9.62683 13.6307 9.27387 13.2006 9.06544 12.6974C8.85701 12.1942 8.80248 11.6405 8.90873 11.1063C9.01499 10.5721 9.27726 10.0815 9.66239 9.69634C10.0475 9.31121 10.5382 9.04894 11.0724 8.94268C11.6066 8.83643 12.1602 8.89096 12.6634 9.09939C13.1666 9.30782 13.5967 9.66078 13.8993 10.1136C14.2019 10.5665 14.3634 11.0989 14.3634 11.6436C14.3594 13.1645 13.1266 14.3973 11.6096 14.3973ZM31.7707 31.7686H27.0236V24.3358C27.0236 22.5626 26.9916 20.2852 24.554 20.2852C22.0844 20.2852 21.7042 22.2144 21.7042 24.2077V31.7686H16.9611V16.4867H21.516V18.5761H21.5801C22.2125 17.3753 23.7615 16.1065 26.075 16.1065C30.8861 16.1065 31.7707 19.2725 31.7707 23.3872V31.7686Z" fill="white"/>
</svg>
