<svg width="46" height="46" viewBox="0 0 46 46" fill="none" xmlns="http://www.w3.org/2000/svg">
<path d="M23 26.8333C27.2282 26.8333 30.6667 23.3948 30.6667 19.1667C30.6667 14.9385 27.2282 11.5 23 11.5C18.7719 11.5 15.3334 14.9385 15.3334 19.1667C15.3334 23.3948 18.7719 26.8333 23 26.8333ZM23 15.3333C25.1141 15.3333 26.8334 17.0526 26.8334 19.1667C26.8334 21.2807 25.1141 23 23 23C20.886 23 19.1667 21.2807 19.1667 19.1667C19.1667 17.0526 20.886 15.3333 23 15.3333Z" fill="black"/>
<path d="M21.8885 41.8103C22.2129 42.042 22.6015 42.1665 23.0001 42.1665C23.3987 42.1665 23.7874 42.042 24.1118 41.8103C24.6945 41.3982 38.389 31.5102 38.3335 19.1668C38.3335 10.7124 31.4545 3.8335 23.0001 3.8335C14.5457 3.8335 7.66679 10.7124 7.66679 19.1572C7.61121 31.5102 21.3058 41.3982 21.8885 41.8103ZM23.0001 7.66683C29.3424 7.66683 34.5001 12.8246 34.5001 19.1764C34.5404 27.6826 26.0898 35.3205 23.0001 37.8256C19.9124 35.3186 11.4599 27.6787 11.5001 19.1668C11.5001 12.8246 16.6579 7.66683 23.0001 7.66683Z" fill="white"/>
</svg>
